<svg xmlns="http://www.w3.org/2000/svg" viewBox="0 0 32 32">
  <defs>
    <linearGradient id="grad" x1="0%" y1="0%" x2="100%" y2="100%">
      <stop offset="0%" style="stop-color:#0ea5e9;stop-opacity:1" />
      <stop offset="100%" style="stop-color:#10b981;stop-opacity:1" />
    </linearGradient>
  </defs>
  <rect width="32" height="32" rx="6" fill="url(#grad)"/>
  <path d="M8 20l4.586-4.586a2 2 0 012.828 0L20 20m-2-2l1.586-1.586a2 2 0 012.828 0L24 19.5m-6-6h.01M10 26h12a2 2 0 002-2V8a2 2 0 00-2-2H10a2 2 0 00-2 2v16a2 2 0 002 2z"
        stroke="white"
        stroke-width="1.5"
        stroke-linecap="round"
        stroke-linejoin="round"
        fill="none"/>
</svg>
